<?xml version="1.0" encoding="UTF-8" standalone="no"?>
<!-- Created with Inkscape (http://www.inkscape.org/) -->

<svg
   width="1048.0002"
   height="1048.0002"
   viewBox="0 0 277.28339 277.28339"
   version="1.1"
   id="svg1"
   xmlns="http://www.w3.org/2000/svg"
   xmlns:svg="http://www.w3.org/2000/svg">
  <defs
     id="defs1" />
  <g
     id="layer1"
     style="display:none">
    <g
       id="layer4"
       style="display:none">
      <path
         style="font-size:259.793px;-inkscape-font-specification:'sans-serif, Normal';display:inline;fill:#ff2c4c;fill-opacity:0.540636;stroke-width:0.278347"
         d="M 257.69455,102.98033 208.83438,271.01266 H 177.03624 L 127.15601,131.53115 88.771459,271.01266 H 57.686283 L -4.8183271,102.98033 H 24.127961 L 74.016685,242.68752 112.67793,102.98033 h 28.66111 l 49.6545,141.06139 39.03806,-141.06139 z"
         id="text1-7-8"
         aria-label="W" />
      <path
         style="font-size:230.721px;-inkscape-font-specification:'sans-serif, Normal';display:inline;stroke-width:0.247201"
         d="M 211.265,270.72617 H 187.49443 L 171.04655,223.97362 H 98.49561 L 82.047726,270.72617 H 59.403723 L 120.46367,102.98029 h 29.74138 z m -47.09051,-65.90419 -29.40341,-82.35208 -29.51607,82.35208 z"
         id="text1"
         aria-label="A" />
    </g>
    <path
       id="path1-5"
       style="fill:#4a5f84;fill-opacity:1;stroke:none;stroke-width:0.695095;stroke-opacity:1"
       d="M 4.6854279,102.96084 A 135.46655,135.4668 90 0 0 1.6835518,119.13218 L 45.499546,235.44361 a 135.46655,135.4668 90 0 0 46.53839,27.2428 l 35.659544,-131.70788 48.3009,133.31848 a 135.46655,135.4668 90 0 0 41.74366,-21.40724 L 258.1169,101.86219 230.45423,101.98211 191.99844,243.2117 141.76272,102.3666 113.10166,102.49085 75.017007,242.36437 24.55278,102.87471 Z"
       transform="matrix(0.99999059,0.00433506,-0.0041245,0.99999149,0,0)" />
    <path
       id="use7"
       style="fill:#7e98d5;fill-opacity:1;stroke:none;stroke-width:0.695095;stroke-opacity:1"
       d="M 120.88717,102.4571 67.387292,251.35253 a 135.4668,135.46655 0 0 0 19.154618,9.28391 l 12.87683,-37.09211 72.54999,-0.31452 13.45526,37.74486 a 135.4668,135.46655 0 0 0 20.08201,-9.8111 L 150.62877,102.32816 Z m 14.38792,19.42756 29.74278,82.22384 -58.9189,0.25542 z"
       transform="matrix(0.99999059,0.00433506,-0.0041245,0.99999149,0,0)" />
  </g>
  <g
     id="g10"
     style="display:inline"
     transform="translate(3.1750184,3.1750328)">
    <g
       id="g8"
       style="display:none">
      <path
         style="font-size:259.793px;-inkscape-font-specification:'sans-serif, Normal';display:inline;fill:#ff2c4c;fill-opacity:0.540636;stroke-width:0.278347"
         d="M 257.69455,102.98033 208.83438,271.01266 H 177.03624 L 127.15601,131.53115 88.771459,271.01266 H 57.686283 L -4.8183271,102.98033 H 24.127961 L 74.016685,242.68752 112.67793,102.98033 h 28.66111 l 49.6545,141.06139 39.03806,-141.06139 z"
         id="path7"
         aria-label="W" />
      <path
         style="font-size:230.721px;-inkscape-font-specification:'sans-serif, Normal';display:inline;stroke-width:0.247201"
         d="M 211.265,270.72617 H 187.49443 L 171.04655,223.97362 H 98.49561 L 82.047726,270.72617 H 59.403723 L 120.46367,102.98029 h 29.74138 z m -47.09051,-65.90419 -29.40341,-82.35208 -29.51607,82.35208 z"
         id="path8"
         aria-label="A" />
    </g>
    <path
       id="path9"
       style="display:none;fill:#4f6689;fill-opacity:1;stroke:none;stroke-width:0.695095;stroke-opacity:1"
       d="M 4.6854279,102.96084 A 135.46655,135.4668 90 0 0 1.6835518,119.13218 L 45.499546,235.44361 a 135.46655,135.4668 90 0 0 46.53839,27.2428 l 35.659544,-131.70788 48.3009,133.31848 a 135.46655,135.4668 90 0 0 41.74366,-21.40724 L 258.1169,101.86219 230.45423,101.98211 191.99844,243.2117 141.76272,102.3666 113.10166,102.49085 75.017007,242.36437 24.55278,102.87471 Z"
       transform="matrix(0.99999059,0.00433506,-0.0041245,0.99999149,0,0)" />
    <g
       id="g15">
      <ellipse
         style="display:inline;fill:none;fill-opacity:1;stroke:#1e2e5b;stroke-width:6.35;stroke-dasharray:none;stroke-opacity:1"
         id="path1-0"
         cx="136.02426"
         cy="134.87814"
         rx="135.4668"
         ry="135.46655"
         transform="matrix(0.99999059,0.00433506,-0.0041245,0.99999149,0,0)" />
      <ellipse
         style="display:none;fill:none;fill-opacity:1;stroke:#7e98d5;stroke-width:6.35;stroke-dasharray:none;stroke-opacity:1"
         id="path1-0-6"
         cx="136.02426"
         cy="134.87814"
         rx="135.4668"
         ry="135.46655"
         transform="matrix(0.99999059,0.00433506,-0.0041245,0.99999149,1.2083333e-7,0)" />
      <path
         id="use12"
         style="display:inline;fill:#e8d1b8;fill-opacity:1;stroke:none;stroke-width:0.695095;stroke-opacity:1"
         d="M 4.2607218,102.98028 A 135.48094,135.45241 44.992546 0 0 1.1921753,119.13846 L 44.528031,235.63885 a 135.48094,135.45241 44.992546 0 0 39.786719,24.63519 l 28.13317,-77.57925 0.59944,0.10335 14.1087,-51.26715 47.75058,133.52673 a 135.48094,135.45241 44.992546 0 0 41.83155,-21.22609 L 257.69435,102.98028 H 230.03144 L 190.99351,244.04195 141.33918,102.98028 h -28.6613 L 74.016671,242.68751 24.128243,102.98028 Z" />
      <path
         id="path10"
         style="display:inline;fill:#7e98d5;fill-opacity:1;stroke:none;stroke-width:0.695095;stroke-opacity:1"
         d="M 120.88717,102.4571 67.387292,251.35253 a 135.4668,135.46655 0 0 0 19.154618,9.28391 l 12.87683,-37.09211 72.54999,-0.31452 13.45526,37.74486 a 135.4668,135.46655 0 0 0 20.08201,-9.8111 L 150.62877,102.32816 Z m 14.38792,19.42756 29.74278,82.22384 -58.9189,0.25542 z"
         transform="matrix(0.99999059,0.00433506,-0.0041245,0.99999149,1.2083333e-7,0)" />
      <path
         id="use11"
         style="display:inline;fill:#1e2e5b;fill-opacity:1;stroke:none;stroke-width:0.695095"
         d="M 113.27454,102.43274 61.117321,247.59128 a 135.4668,135.46655 0 0 0 18.599948,10.49401 C 85.91468,240.23066 92.184126,222.30351 98.48996,204.33954 l -0.0041,2e-5 0.555256,-1.56925 C 110.75609,169.40569 122.62059,135.89026 134.51906,102.34064 Z"
         transform="matrix(0.99999059,0.00433506,-0.0041245,0.99999149,1.2083333e-7,0)" />
      <ellipse
         style="display:none;fill:none;fill-opacity:1;stroke:#1e2e5b;stroke-width:6.22389;stroke-dasharray:none;stroke-opacity:1"
         id="path1-0-6-2"
         cx="135.244"
         cy="135.18129"
         rx="130.07976"
         ry="135.52948"
         transform="matrix(0.9999898,0.00451669,-0.00395865,0.99999215,1.2083333e-7,0)" />
      <path
         id="path1"
         style="display:inline;fill:none;fill-opacity:1;stroke:#1e2e5b;stroke-width:6.18528;stroke-dasharray:none;stroke-opacity:1"
         d="M 138.32605,2.0596726 A 132.82076,131.08831 89.54053 0 0 100.26828,7.6897956 132.82076,131.08831 89.54053 0 1 133.68849,3.2346413 132.82076,131.08831 89.54053 0 1 264.23484,136.62984 132.82076,131.08831 89.54053 0 1 167.14068,264.29764 132.82076,131.08831 89.54053 0 0 268.87294,135.45488 132.82076,131.08831 89.54053 0 0 138.32605,2.0596726 Z M 167.14068,264.29764 a 132.82076,131.08831 89.54053 0 1 -29.89573,3.4013 A 132.82076,131.08831 89.54053 0 1 6.6980749,134.30371 132.82076,131.08831 89.54053 0 1 100.26828,7.6897956 132.82076,131.08831 89.54053 0 0 2.0604938,135.47817 132.82076,131.08831 89.54053 0 0 132.60685,268.87341 a 132.82076,131.08831 89.54053 0 0 34.53383,-4.57577 z" />
      <path
         id="path1-3"
         style="display:inline;fill:none;fill-opacity:1;stroke:#7e98d5;stroke-width:4.818;stroke-dasharray:none;stroke-opacity:1"
         d="m 138.29359,3.5735049 a 131.31363,129.60072 89.54053 0 0 -37.62595,5.5662357 131.31363,129.60072 89.54053 0 1 33.04099,-4.4046 A 131.31363,129.60072 89.54053 0 1 262.77366,136.61664 131.31363,129.60072 89.54053 0 1 166.78132,262.83576 131.31363,129.60072 89.54053 0 0 267.35912,135.45499 131.31363,129.60072 89.54053 0 0 138.29359,3.5735049 Z M 166.78132,262.83576 A 131.31363,129.60072 89.54053 0 1 137.22476,266.19843 131.31363,129.60072 89.54053 0 1 8.1592721,134.31698 131.31363,129.60072 89.54053 0 1 100.66764,9.1397406 131.31363,129.60072 89.54053 0 0 3.5743162,135.47811 131.31363,129.60072 89.54053 0 0 132.63938,267.35958 a 131.31363,129.60072 89.54053 0 0 34.14194,-4.52382 z" />
      <path
         id="path2"
         style="display:none;fill:#e8d1b8;fill-opacity:1;stroke:none;stroke-width:0.695095;stroke-opacity:1"
         d="M 216.73819,243.83163 257.69435,102.98028 H 230.03144 L 190.99351,244.04195 M 74.016671,242.68751 24.128243,102.98028 H 4.2607218 c -1.3491922,5.31887 -2.3739293,10.71487 -3.0685465,16.15818 L 44.528031,235.63885" />
    </g>
  </g>
</svg>
