<?xml version="1.0" encoding="UTF-8" standalone="no"?>
<!-- Created with Inkscape (http://www.inkscape.org/) -->

<svg
   width="1048"
   height="1048"
   viewBox="0 0 277.28333 277.28333"
   version="1.1"
   id="svg1"
   inkscape:version="1.3.2 (091e20e, 2023-11-25)"
   sodipodi:docname="logo_transparent.svg"
   inkscape:export-filename="logo_transparent.png"
   inkscape:export-xdpi="96"
   inkscape:export-ydpi="96"
   xmlns:inkscape="http://www.inkscape.org/namespaces/inkscape"
   xmlns:sodipodi="http://sodipodi.sourceforge.net/DTD/sodipodi-0.dtd"
   xmlns="http://www.w3.org/2000/svg"
   xmlns:svg="http://www.w3.org/2000/svg">
  <sodipodi:namedview
     id="namedview1"
     pagecolor="#505050"
     bordercolor="#ffffff"
     borderopacity="1"
     inkscape:showpageshadow="0"
     inkscape:pageopacity="0"
     inkscape:pagecheckerboard="1"
     inkscape:deskcolor="#505050"
     inkscape:document-units="mm"
     inkscape:zoom="0.66245342"
     inkscape:cx="415.87829"
     inkscape:cy="665.70718"
     inkscape:window-width="2208"
     inkscape:window-height="1579"
     inkscape:window-x="2032"
     inkscape:window-y="91"
     inkscape:window-maximized="0"
     inkscape:current-layer="g15"
     inkscape:export-bgcolor="#eef1f600" />
  <defs
     id="defs1" />
  <g
     id="layer3"
     inkscape:label="Layer 0"
     inkscape:groupmode="layer"
     style="display:inline" />
  <g
     inkscape:label="Letter Layer Backup"
     inkscape:groupmode="layer"
     id="layer1"
     style="display:none">
    <g
       inkscape:groupmode="layer"
       id="layer4"
       inkscape:label="Original Letters"
       style="display:none">
      <path
         style="font-size:259.793px;-inkscape-font-specification:'sans-serif, Normal';display:inline;fill:#ff2c4c;fill-opacity:0.540636;stroke-width:0.278347"
         d="M 257.69455,102.98033 208.83438,271.01266 H 177.03624 L 127.15601,131.53115 88.771459,271.01266 H 57.686283 L -4.8183271,102.98033 H 24.127961 L 74.016685,242.68752 112.67793,102.98033 h 28.66111 l 49.6545,141.06139 39.03806,-141.06139 z"
         id="text1-7-8"
         inkscape:label="W"
         aria-label="W" />
      <path
         style="font-size:230.721px;-inkscape-font-specification:'sans-serif, Normal';display:inline;stroke-width:0.247201"
         d="M 211.265,270.72617 H 187.49443 L 171.04655,223.97362 H 98.49561 L 82.047726,270.72617 H 59.403723 L 120.46367,102.98029 h 29.74138 z m -47.09051,-65.90419 -29.40341,-82.35208 -29.51607,82.35208 z"
         id="text1"
         inkscape:label="A"
         aria-label="A" />
    </g>
    <path
       id="path1-5"
       style="fill:#4a5f84;fill-opacity:1;stroke:none;stroke-width:0.695095;stroke-opacity:1"
       inkscape:label="W"
       d="M 4.6854279,102.96084 A 135.46655,135.4668 90 0 0 1.6835518,119.13218 L 45.499546,235.44361 a 135.46655,135.4668 90 0 0 46.53839,27.2428 l 35.659544,-131.70788 48.3009,133.31848 a 135.46655,135.4668 90 0 0 41.74366,-21.40724 L 258.1169,101.86219 230.45423,101.98211 191.99844,243.2117 141.76272,102.3666 113.10166,102.49085 75.017007,242.36437 24.55278,102.87471 Z"
       transform="matrix(0.99999059,0.00433506,-0.0041245,0.99999149,0,0)" />
    <path
       id="use7"
       style="fill:#7e98d5;fill-opacity:1;stroke:none;stroke-width:0.695095;stroke-opacity:1"
       inkscape:label="A"
       d="M 120.88717,102.4571 67.387292,251.35253 a 135.4668,135.46655 0 0 0 19.154618,9.28391 l 12.87683,-37.09211 72.54999,-0.31452 13.45526,37.74486 a 135.4668,135.46655 0 0 0 20.08201,-9.8111 L 150.62877,102.32816 Z m 14.38792,19.42756 29.74278,82.22384 -58.9189,0.25542 z"
       transform="matrix(0.99999059,0.00433506,-0.0041245,0.99999149,0,0)" />
  </g>
  <g
     inkscape:label="Layer 1 copy"
     inkscape:groupmode="layer"
     id="g10"
     style="display:inline"
     transform="translate(3.1750184,3.1750328)">
    <g
       inkscape:groupmode="layer"
       id="g8"
       inkscape:label="Original Letters"
       style="display:none">
      <path
         style="font-size:259.793px;-inkscape-font-specification:'sans-serif, Normal';display:inline;fill:#ff2c4c;fill-opacity:0.540636;stroke-width:0.278347"
         d="M 257.69455,102.98033 208.83438,271.01266 H 177.03624 L 127.15601,131.53115 88.771459,271.01266 H 57.686283 L -4.8183271,102.98033 H 24.127961 L 74.016685,242.68752 112.67793,102.98033 h 28.66111 l 49.6545,141.06139 39.03806,-141.06139 z"
         id="path7"
         inkscape:label="W"
         aria-label="W" />
      <path
         style="font-size:230.721px;-inkscape-font-specification:'sans-serif, Normal';display:inline;stroke-width:0.247201"
         d="M 211.265,270.72617 H 187.49443 L 171.04655,223.97362 H 98.49561 L 82.047726,270.72617 H 59.403723 L 120.46367,102.98029 h 29.74138 z m -47.09051,-65.90419 -29.40341,-82.35208 -29.51607,82.35208 z"
         id="path8"
         inkscape:label="A"
         aria-label="A" />
    </g>
    <path
       id="path9"
       style="display:none;fill:#4f6689;fill-opacity:1;stroke:none;stroke-width:0.695095;stroke-opacity:1"
       inkscape:label="W"
       d="M 4.6854279,102.96084 A 135.46655,135.4668 90 0 0 1.6835518,119.13218 L 45.499546,235.44361 a 135.46655,135.4668 90 0 0 46.53839,27.2428 l 35.659544,-131.70788 48.3009,133.31848 a 135.46655,135.4668 90 0 0 41.74366,-21.40724 L 258.1169,101.86219 230.45423,101.98211 191.99844,243.2117 141.76272,102.3666 113.10166,102.49085 75.017007,242.36437 24.55278,102.87471 Z"
       transform="matrix(0.99999059,0.00433506,-0.0041245,0.99999149,0,0)" />
    <g
       id="g15">
      <ellipse
         style="display:none;fill:#eef1f6;fill-opacity:1;stroke:#1e2e5b;stroke-width:6.35;stroke-dasharray:none;stroke-opacity:1"
         id="path1-0"
         cx="136.02426"
         cy="134.87814"
         rx="135.4668"
         ry="135.46655"
         transform="matrix(0.99999059,0.00433506,-0.0041245,0.99999149,0,0)"
         inkscape:label="Background" />
      <path
         id="use12"
         style="display:inline;fill:#e8d1b8;fill-opacity:1;stroke:none;stroke-width:0.695095;stroke-opacity:1"
         inkscape:label="W"
         d="M 4.2607218,102.98028 A 135.48094,135.45241 44.992546 0 0 1.1921753,119.13846 L 44.528031,235.63885 a 135.48094,135.45241 44.992546 0 0 39.786719,24.63519 l 28.13317,-77.57925 0.59944,0.10335 14.1087,-51.26715 47.75058,133.52673 a 135.48094,135.45241 44.992546 0 0 41.83155,-21.22609 L 257.69435,102.98028 H 230.03144 L 190.99351,244.04195 141.33918,102.98028 h -28.6613 L 74.016671,242.68751 24.128243,102.98028 Z" />
      <path
         id="path10"
         style="fill:#7e98d5;fill-opacity:1;stroke:none;stroke-width:0.695095;stroke-opacity:1"
         inkscape:label="A"
         d="M 120.88717,102.4571 67.387292,251.35253 a 135.4668,135.46655 0 0 0 19.154618,9.28391 l 12.87683,-37.09211 72.54999,-0.31452 13.45526,37.74486 a 135.4668,135.46655 0 0 0 20.08201,-9.8111 L 150.62877,102.32816 Z m 14.38792,19.42756 29.74278,82.22384 -58.9189,0.25542 z"
         transform="matrix(0.99999059,0.00433506,-0.0041245,0.99999149,0,0)" />
      <path
         id="use11"
         style="display:inline;fill:#1e2e5b;fill-opacity:1;stroke:none;stroke-width:0.695095"
         inkscape:label="3D A"
         d="M 113.27454,102.43274 61.117321,247.59128 a 135.4668,135.46655 0 0 0 18.599948,10.49401 C 85.91468,240.23066 92.184126,222.30351 98.48996,204.33954 l -0.0041,2e-5 0.555256,-1.56925 C 110.75609,169.40569 122.62059,135.89026 134.51906,102.34064 Z"
         transform="matrix(0.9999906,0.00433506,-0.0041245,0.99999149,0,0)" />
      <path
         id="path1"
         style="display:none;fill:none;fill-opacity:1;stroke:#1e2e5b;stroke-width:6.11726;stroke-dasharray:none;stroke-opacity:1"
         inkscape:label="Background"
         d="M 137.6629,4.4710546 A 131.3612,129.64781 89.54053 0 0 100.02335,10.039309 131.3612,129.64781 89.54053 0 1 133.07628,5.633112 131.3612,129.64781 89.54053 0 1 262.18808,137.56246 131.3612,129.64781 89.54053 0 1 166.16087,263.82733 131.3612,129.64781 89.54053 0 0 266.77521,136.40041 131.3612,129.64781 89.54053 0 0 137.6629,4.4710546 Z M 166.16087,263.82733 A 131.3612,129.64781 89.54053 0 1 136.59365,267.19124 131.3612,129.64781 89.54053 0 1 7.481354,135.2619 131.3612,129.64781 89.54053 0 1 100.02335,10.039309 131.3612,129.64781 89.54053 0 0 2.8947345,136.42345 131.3612,129.64781 89.54053 0 0 132.00653,268.35279 a 131.3612,129.64781 89.54053 0 0 34.15434,-4.52546 z" />
      <ellipse
         style="display:inline;fill:none;fill-opacity:1;stroke:#1e2e5b;stroke-width:6.35;stroke-dasharray:none;stroke-opacity:1"
         id="path1-0-6"
         cx="136.02426"
         cy="134.87814"
         rx="135.4668"
         ry="135.46655"
         transform="matrix(0.99999059,0.00433506,-0.0041245,0.99999149,1.2083333e-7,0)"
         inkscape:label="Background" />
      <ellipse
         style="display:inline;fill:none;fill-opacity:1;stroke:#1e2e5b;stroke-width:6.22389;stroke-dasharray:none;stroke-opacity:1"
         id="path1-0-6-2"
         cx="135.244"
         cy="135.18129"
         rx="130.07976"
         ry="135.52948"
         transform="matrix(0.9999898,0.00451669,-0.00395865,0.99999216,0,0)"
         inkscape:label="Background" />
    </g>
  </g>
</svg>
